<?xml version="1.0" encoding="iso-8859-1"?>
<!-- Generator: Adobe Illustrator 19.1.0, SVG Export Plug-In . SVG Version: 6.00 Build 0)  -->
<svg version="1.1" id="Capa_1" xmlns="http://www.w3.org/2000/svg" xmlns:xlink="http://www.w3.org/1999/xlink" x="0px" y="0px"
	 viewBox="0 0 125.393 125.393" style="enable-background:new 0 0 125.393 125.393;" xml:space="preserve">
<g>
	<path d="M123.586,44.647c-1.114-0.623-2.479-0.582-3.563,0.088L90.956,62.837c0.294,0.191,0.558,0.436,0.759,0.753l19.828,31.191
		c0.749,1.177,0.401,2.742-0.778,3.492c-0.421,0.266-0.891,0.395-1.355,0.395c-0.837,0-1.655-0.414-2.139-1.175L87.444,66.301
		c-0.21-0.33-0.314-0.69-0.357-1.055L62.698,80.436L38.314,65.25c-0.042,0.351-0.146,0.698-0.343,1.019L18.805,97.46
		c-0.478,0.78-1.306,1.208-2.158,1.208c-0.452,0-0.909-0.121-1.322-0.376c-1.19-0.73-1.562-2.289-0.83-3.481l19.167-31.191
		c0.203-0.33,0.478-0.581,0.783-0.78L5.374,44.735c-1.083-0.67-2.449-0.711-3.563-0.088c-1.116,0.62-1.808,1.795-1.808,3.072v73.713
		c0,1.941,1.573,3.514,3.514,3.514H121.88c1.941,0,3.514-1.573,3.514-3.514V47.718C125.393,46.442,124.702,45.267,123.586,44.647z
		 M109.408,112.357H16.65c-0.582,0-1.054-0.472-1.054-1.054c0-0.582,0.472-1.054,1.054-1.054h92.758
		c0.582,0,1.054,0.472,1.054,1.054C110.462,111.885,109.99,112.357,109.408,112.357z"/>
	<path d="M39.377,61.456c0.49-12.455,10.748-22.445,23.321-22.445c12.573,0,22.831,9.989,23.321,22.444l6.622-3.937
		c-2.337-14.451-14.844-25.534-29.943-25.534c-15.099,0-27.607,11.083-29.945,25.533L39.377,61.456z"/>
	<path d="M44.462,64.479c-0.08-0.689-0.124-1.389-0.124-2.1c0-10.123,8.236-18.361,18.361-18.361
		c10.125,0,18.361,8.238,18.361,18.361c0,0.71-0.042,1.41-0.123,2.098l2.006-1.192c0.014-0.305,0.072-0.597,0.072-0.906
		c0-11.202-9.113-20.316-20.316-20.316c-11.202,0-20.316,9.113-20.316,20.316c0,0.309,0.06,0.602,0.073,0.908L44.462,64.479z"/>
	<path d="M61.587,65.082c2.908,0.983,4.166,1.927,4.166,3.421c0,1.572-1.533,2.436-3.774,2.436c-2.554,0-4.874-0.826-6.524-1.728
		l-0.402,1.567l7.642,4.544l8.746-5.2c0.227-0.691,0.364-1.414,0.364-2.169c0-3.54-1.887-5.7-6.564-7.351
		c-3.341-1.258-4.717-2.084-4.717-3.38c0-1.101,0.826-2.202,3.381-2.202c2.829,0,4.638,0.906,5.66,1.338l1.139-4.442
		c-1.296-0.631-3.066-1.178-5.7-1.296v-3.46h-3.852v3.735c-4.205,0.826-6.642,3.536-6.642,6.996
		C54.511,61.702,57.38,63.667,61.587,65.082z"/>
	<path d="M121.875,50.232c-0.714,0-1.433-0.217-2.056-0.664L62.697,8.295L5.574,49.568c-1.578,1.131-3.769,0.78-4.908-0.791
		c-1.136-1.573-0.782-3.772,0.791-4.908L60.638,1.111c1.23-0.884,2.888-0.884,4.117,0l59.181,42.758
		c1.573,1.136,1.927,3.335,0.791,4.908C124.038,49.727,122.965,50.232,121.875,50.232z"/>
</g>
<g>
</g>
<g>
</g>
<g>
</g>
<g>
</g>
<g>
</g>
<g>
</g>
<g>
</g>
<g>
</g>
<g>
</g>
<g>
</g>
<g>
</g>
<g>
</g>
<g>
</g>
<g>
</g>
<g>
</g>
</svg>
