<svg xmlns="http://www.w3.org/2000/svg" xmlns:xlink="http://www.w3.org/1999/xlink" version="1.1" width="256" height="256" viewBox="0 0 256 256" xml:space="preserve">

<defs>
</defs>
<g style="stroke: none; stroke-width: 0; stroke-dasharray: none; stroke-linecap: butt; stroke-linejoin: miter; stroke-miterlimit: 10; fill: none; fill-rule: nonzero; opacity: 1;" transform="translate(1.4065934065934016 1.4065934065934016) scale(2.81 2.81)" >
	<path d="M 45 0 C 20.147 0 0 20.147 0 45 c 0 24.853 20.147 45 45 45 s 45 -20.147 45 -45 C 90 20.147 69.853 0 45 0 z M 72 57.499 c 0 4.22 -3.434 7.653 -7.653 7.653 H 25.653 c -4.22 0 -7.653 -3.434 -7.653 -7.653 V 32.501 c 0 -4.22 3.433 -7.653 7.653 -7.653 h 38.693 c 4.22 0 7.653 3.433 7.653 7.653 V 57.499 z" style="stroke: none; stroke-width: 1; stroke-dasharray: none; stroke-linecap: butt; stroke-linejoin: miter; stroke-miterlimit: 10; fill: rgb(0,0,0); fill-rule: nonzero; opacity: 1;" transform=" matrix(1 0 0 1 0 0) " stroke-linecap="round" />
	<path d="M 54.507 44.81 l 10.812 -10.615 c 0.896 -0.88 0.909 -2.319 0.029 -3.215 c -0.88 -0.896 -2.319 -0.91 -3.214 -0.029 L 47.957 44.87 c -1.629 1.601 -4.284 1.601 -5.914 0 L 27.866 30.95 c -0.896 -0.879 -2.335 -0.865 -3.215 0.029 c -0.88 0.896 -0.866 2.335 0.029 3.215 L 35.492 44.81 L 24.681 55.426 c -0.896 0.879 -0.909 2.319 -0.029 3.214 c 0.445 0.453 1.033 0.68 1.622 0.68 c 0.575 0 1.15 -0.216 1.593 -0.652 l 10.871 -10.673 l 0.121 0.119 c 1.693 1.662 3.917 2.493 6.142 2.493 s 4.449 -0.831 6.142 -2.494 l 0.12 -0.118 l 10.872 10.673 c 0.443 0.435 1.018 0.652 1.593 0.652 c 0.588 0 1.177 -0.228 1.622 -0.68 c 0.88 -0.896 0.867 -2.335 -0.029 -3.214 L 54.507 44.81 z" style="stroke: none; stroke-width: 1; stroke-dasharray: none; stroke-linecap: butt; stroke-linejoin: miter; stroke-miterlimit: 10; fill: rgb(0,0,0); fill-rule: nonzero; opacity: 1;" transform=" matrix(1 0 0 1 0 0) " stroke-linecap="round" />
</g>
</svg>