<?xml version="1.0" encoding="iso-8859-1"?>
<!-- Generator: Adobe Illustrator 18.1.1, SVG Export Plug-In . SVG Version: 6.00 Build 0)  -->
<svg version="1.1" id="Capa_1" xmlns="http://www.w3.org/2000/svg" xmlns:xlink="http://www.w3.org/1999/xlink" x="0px" y="0px"
	 viewBox="0 0 439.167 439.167" style="enable-background:new 0 0 439.167 439.167;" xml:space="preserve">
<g>
	<g>
		<path d="M71.967,154.7c3.4,3.683,7.933,5.383,12.467,5.383c4.25,0,8.217-1.417,11.617-4.533L204,56.383V314.5
			c0,9.35,7.65,17,17,17s17-7.65,17-17V55.533l107.95,100.3c6.8,6.517,17.567,5.95,24.083-0.85c6.517-6.8,5.95-17.567-0.85-24.083
			l-136-126.083c-1.7-1.7-3.967-2.833-6.233-3.683C224.967,0.567,222.983,0,221,0c-5.95,0-11.05,3.117-14.167,7.65L72.817,130.617
			C66.017,137.133,65.45,147.9,71.967,154.7z"/>
		<path d="M36.833,252.167c-9.35,0-17,7.65-17,17v153c0,9.35,7.65,17,17,17h365.5c9.35,0,17-7.65,17-17v-153c0-9.35-7.65-17-17-17
			s-17,7.65-17,17v136h-331.5v-136C53.833,259.817,46.183,252.167,36.833,252.167z"/>
	</g>
</g>
<g>
</g>
<g>
</g>
<g>
</g>
<g>
</g>
<g>
</g>
<g>
</g>
<g>
</g>
<g>
</g>
<g>
</g>
<g>
</g>
<g>
</g>
<g>
</g>
<g>
</g>
<g>
</g>
<g>
</g>
</svg>
