<svg width="500" height="170" xmlns="http://www.w3.org/2000/svg">
 <g>
  <title>SMARTTRUCK</title>
  <g transform="matrix(0.536573 0 0 0.583223 86.814 141.443)" id="svg_1">
   <g id="svg_2">
    <g transform="matrix(2.01294 0 0 1.91007 -49.1938 -90.6067)" id="svg_3">
     <g transform="matrix(1.84904 -0.400813 0.36349 1.83582 148.948 27.8069)" id="svg_4">
      <path class="st0" d="m-49.49427,-12.7946c-0.4,0 -0.8,-0.1 -1.1,-0.4c-5.1,-3.6 -8.4,-9.2 -9.1,-15.4c-1.2,-11.8 7.4,-22.4 19.2,-23.7c11.8,-1.2 22.4,7.4 23.7,19.2c0.6,6.1 -1.3,12.2 -5.5,16.7c-0.7,0.8 -2,0.9 -2.8,0.1c-0.8,-0.7 -0.9,-2 -0.1,-2.8c3.4,-3.7 5,-8.7 4.5,-13.7c-0.5,-4.7 -2.8,-8.9 -6.4,-11.9c-3.7,-3 -8.3,-4.3 -12.9,-3.8c-4.7,0.5 -8.9,2.8 -11.9,6.4c-3,3.7 -4.3,8.3 -3.8,12.9c0.5,5.1 3.2,9.7 7.4,12.6c0.9,0.6 1.1,1.8 0.5,2.7c-0.4,0.8 -1,1.1 -1.7,1.1z" id="svg_5" fill="#ffffff" stroke="#ffffff"/>
     </g>
     <g transform="matrix(-1.64164 0.976327 -0.885413 -1.62991 143.504 135.472)" id="svg_6">
      <path class="st0" d="m36.7098,122.57983c-0.6,0 -1.2,-0.3 -1.6,-0.8c-0.7,-0.9 -0.5,-2.1 0.4,-2.7c7.6,-5.7 11.5,-14.8 10.5,-24.2c-0.8,-7.4 -4.6,-14.2 -10.5,-18.7c-0.9,-0.6 -1,-1.9 -0.4,-2.7c0.6,-0.9 1.9,-1 2.7,-0.4c6.8,5.1 11.2,12.9 12.1,21.3c1.1,10.8 -3.4,21.1 -12,27.7c-0.4,0.3 -0.8,0.5 -1.2,0.5z" fill="#ffffff" id="svg_7" stroke="#ffffff"/>
     </g>
     <g transform="matrix(2.39258 0.403535 -0.281996 1.83047 171.194 -43.5378)" id="svg_8">
      <path class="st0" d="m-51.86897,56.13993c-0.251,-0.00047 -0.41785,-0.10379 -0.66869,-0.20726c-8.52619,-4.56004 -14.45134,-14.48619 -15.43833,-25.84907c-0.82231,-9.81256 2.03691,-19.30921 7.73511,-26.11451c0.67124,-0.82574 1.67508,-0.71985 2.343,0.0044c0.66776,0.82726 0.58191,2.0661 -0.00433,2.891c-5.02896,5.98156 -7.46733,14.23899 -6.72716,22.81239c0.822,10.01956 5.99616,18.60131 13.43513,22.6433c0.83638,0.41457 1.25252,1.65536 0.83298,2.68657c-0.25193,0.61953 -0.8387,1.13443 -1.5077,1.13317l-0.00001,0.00001z" id="svg_9" fill="#ffffff" stroke="#ffffff"/>
     </g>
    </g>
   </g>
  </g>
  <rect stroke="#ffffff" x="189.3367" y="36.5716" width="5.47392" height="103.72204" id="svg_10" fill="#ffffff"/>
  <path transform="rotate(-179.816 231.116 64.7635)" fill="#ffffff" stroke="#ffffff" id="svg_11" d="m238.6099,82.34611c5.72598,-0.72355 10.40024,-2.94779 12.42576,-5.97599c1.48018,-2.19745 1.48018,-5.19884 0.03895,-7.31589c-2.37609,-3.51056 -6.66083,-5.25244 -17.48954,-7.2087c-3.19408,-0.58956 -6.50502,-1.31311 -7.40092,-1.60789c-2.80456,-0.99153 -3.77837,-2.8406 -2.49295,-4.71647c0.85695,-1.23271 2.80456,-2.00986 5.60912,-2.17065c5.53121,-0.34838 8.53054,1.23271 10.36129,5.52042c0.1558,0.29478 0.8959,0.32158 3.77837,0.18759c1.94761,-0.0804 5.14169,-0.24118 7.05035,-0.34838l3.46675,-0.16079l-0.23371,-1.4203c-0.11685,-0.83074 -0.77904,-2.25104 -1.59704,-3.37657c-3.5057,-5.03805 -9.38748,-6.96751 -21.2679,-6.96751c-6.42712,0 -10.04967,0.50916 -14.06175,1.95627c-7.9852,2.94779 -11.02348,10.29048 -6.23235,15.27493c2.6098,2.70661 7.32302,4.3145 17.91801,6.10998c8.41368,1.4471 9.58224,1.90267 9.50434,3.69814c-0.0779,1.84907 -2.80456,2.921 -6.77768,2.67982c-3.15513,-0.18759 -4.83007,-0.96473 -6.15444,-2.8406c-1.20752,-1.71508 -0.03895,-1.58109 -9.54329,-1.23271l-5.3754,0.18759l0.1558,1.12553c0.50638,3.02819 4.01208,6.21717 8.25787,7.55707c4.4016,1.3935 13.47746,1.84907 20.06038,1.04513l0,0l0,0l0.00001,-0.00002l-0.00003,0z" xmlns="http://www.w3.org/2000/svg"/>
  <path fill="#ffffff" stroke="#ffffff" d="m258.52374,47.16752c-0.10467,0.18963 -0.13956,8.15416 -0.10467,17.68994l0.10467,17.33777l5.40798,0l5.40798,0l0.17446,-13.13877c0.10467,-7.2331 0.31401,-12.97624 0.45357,-12.7866c0.41868,0.51471 0.59314,0.97525 4.81484,13.73476c2.1283,6.3933 4.01237,11.81135 4.22171,11.97389c0.24423,0.24381 1.70962,0.35217 5.02418,0.35217c4.53572,0 4.71017,-0.0271 5.02418,-0.62308c0.20935,-0.32508 2.16319,-6.14949 4.39617,-12.92205c3.5239,-10.78192 4.43105,-13.22005 4.74506,-12.70533c0.03489,0.05418 0.17446,5.95986 0.27912,13.11169l0.17446,13.00332l5.40798,0l5.40798,0l0.10467,-17.44613c0.06978,-13.78894 0,-17.50031 -0.3489,-17.68994c-0.55824,-0.2709 -17.06129,-0.2709 -17.58464,0c-0.24423,0.10836 -1.91896,4.74079 -3.76814,10.32139c-3.10522,9.42741 -3.69836,10.94447 -4.22171,10.53811c-0.10467,-0.08127 -1.70962,-4.71371 -3.55879,-10.26721c-1.84918,-5.58059 -3.48901,-10.2943 -3.69836,-10.48393c-0.24423,-0.24381 -2.4772,-0.32508 -9.03656,-0.32508c-6.62913,0 -8.72254,0.08127 -8.82721,0.32508l0,0l-0.00001,0l-0.00002,0z" id="svg_12" xmlns="http://www.w3.org/2000/svg"/>
  <path fill="#ffffff" stroke="#ffffff" id="svg_13" d="m331.07814,47.16581c-12.30782,23.92933 -17.45139,34.06156 -17.45139,34.35799c0,0.26948 1.50633,0.35031 7.16426,0.35031l7.12752,0l1.24916,-2.91033l1.21241,-2.88338l8.4134,-0.08084c5.51097,-0.02694 8.52363,0.02694 8.7808,0.21558c0.22044,0.16169 0.9185,1.45516 1.50633,2.91033l1.13893,2.6139l7.42143,0.08084c4.81291,0.02694 7.42143,-0.02694 7.42143,-0.21558c0,-0.18863 -14.65917,-28.99545 -17.45139,-34.30409c-0.25718,-0.40421 -0.99198,-0.45811 -8.30319,-0.45811c-6.13555,0 -8.11949,0.08084 -8.22971,0.32337l0,0.00001l0.00001,0zm10.9852,14.90194c1.32263,3.09896 2.42482,5.87454 2.42482,6.11707c0,0.43116 -0.47761,0.48506 -5.14357,0.48506c-4.07812,0 -5.21705,-0.08084 -5.364,-0.37726c-0.1837,-0.35031 3.96789,-10.80592 4.70269,-11.85687c0.1837,-0.26948 0.51436,-0.37726 0.66132,-0.26948c0.1837,0.13474 1.39611,2.77558 2.71874,5.90149l0,0l0.00001,-0.00001l-0.00001,0z" xmlns="http://www.w3.org/2000/svg"/>
  <path fill="#ffffff" stroke="#ffffff" id="svg_15" d="m412.37833,51.11276l0,4.27032l6.75216,0c6.31328,0 6.75216,0.02755 7.08977,0.52346c0.20257,0.35816 0.33761,5.15193 0.33761,13.63747l0,13.11401l6.58336,0l6.58336,0l0.06753,-13.58237l0.10128,-13.55482l6.92097,-0.13775l6.92097,-0.13775l0.10128,-3.30605c0.06753,-1.81833 0,-3.71931 -0.10128,-4.21522l-0.20257,-0.88162l-20.56035,0l-20.5941,0l0,4.27032l-0.00002,0.00001l0.00003,-0.00001z" xmlns="http://www.w3.org/2000/svg"/>
  <path fill="#ffffff" stroke="#ffffff" id="svg_16" d="m223.16757,97.65096l0,4.07923l6.39522,0c5.97954,0 6.39522,0.02631 6.71498,0.50004c0.19186,0.34213 0.31976,4.9214 0.31976,13.02724l0,12.52721l6.23534,0l6.23534,0l0.06396,-12.97461l0.09593,-12.94829l6.55511,-0.13159l6.55511,-0.13159l0.09593,-3.15812c0.06396,-1.73696 0,-3.55288 -0.09593,-4.02661l-0.19186,-0.84217l-19.47345,0l-19.50543,0l0,4.07923l-0.00002,0.00001l0.00001,0.00002z" xmlns="http://www.w3.org/2000/svg"/>
  <path transform="rotate(-0.595088 389.035 64.5267)" fill="#ffffff" stroke="#ffffff" d="m369.03613,64.52669l0,17.7307l6.14143,0l6.14143,0l0,-6.79222c0,-3.73709 0.09449,-6.98317 0.18896,-7.22867c0.25196,-0.54556 2.2676,-0.57284 3.71635,-0.05456c1.44874,0.51828 2.14163,1.39118 6.33039,8.12884l3.68486,5.94661l6.8973,0c3.81083,0 6.8973,-0.08183 6.8973,-0.16367c0,-0.10911 -1.41725,-2.56413 -3.14945,-5.4556c-3.59037,-5.97388 -5.25958,-7.9379 -7.77915,-9.16541c-0.94483,-0.46372 -1.60622,-0.92746 -1.44874,-1.03656c0.12598,-0.10911 1.00782,-0.40917 1.92116,-0.68195c0.91334,-0.2455 2.36209,-0.95473 3.24393,-1.55485c3.05497,-2.1004 4.25175,-4.66454 3.9998,-8.61985c-0.31495,-4.74637 -3.52738,-7.69239 -9.38536,-8.48346c-1.16529,-0.16367 -7.4327,-0.30006 -14.70793,-0.30006l-12.69228,0l0,17.7307l-0.00001,-0.00002l0.00001,0.00003zm22.55007,-10.31108c2.866,1.33662 2.55105,5.12827 -0.47242,6.30121c-1.85818,0.73651 -9.07041,1.03656 -9.51134,0.43645c-0.31495,-0.43645 -0.37794,-6.24666 -0.09449,-6.92861c0.18896,-0.40917 0.72437,-0.43645 4.66119,-0.35462c3.40141,0.08183 4.66119,0.19095 5.41706,0.54556l0,0.00001z" id="svg_14" xmlns="http://www.w3.org/2000/svg"/>
  <path fill="#ffffff" stroke="#ffffff" d="m268.60869,109.83405l0,16.44009l6.23137,0l6.23137,0l0,-6.29782c0,-3.46507 0.09587,-6.47487 0.19173,-6.7025c0.25565,-0.50585 2.30081,-0.53114 3.77078,-0.05059c1.46996,0.48056 2.17299,1.28992 6.4231,7.53715l3.73882,5.51376l6.99831,0c3.86664,0 6.99831,-0.07588 6.99831,-0.15175c0,-0.10117 -1.43801,-2.37749 -3.19557,-5.05849c-3.64295,-5.53905 -5.33661,-7.3601 -7.89307,-8.49826c-0.95867,-0.42997 -1.62974,-0.85995 -1.46996,-0.96111c0.12782,-0.10117 1.02258,-0.37939 1.9493,-0.63231c0.92672,-0.22763 2.39668,-0.88524 3.29144,-1.44167c3.09971,-1.94751 4.31402,-4.32501 4.05838,-7.99241c-0.31956,-4.40088 -3.57904,-7.13247 -9.52281,-7.86595c-1.18236,-0.15175 -7.54155,-0.27822 -14.92333,-0.27822l-12.87816,0l0,16.44009l-0.00001,-0.00002l0,0.00001zm22.88031,-9.56055c2.90797,1.23933 2.58841,4.75498 -0.47934,5.84255c-1.88539,0.6829 -9.20325,0.96111 -9.65063,0.40468c-0.31956,-0.40468 -0.38347,-5.79197 -0.09587,-6.42428c0.19173,-0.37939 0.73498,-0.40468 4.72945,-0.3288c3.45122,0.07588 4.72945,0.17705 5.49639,0.50585l0,0.00001l0,-0.00001z" id="svg_18" xmlns="http://www.w3.org/2000/svg"/>
  <path fill="#ffffff" stroke="#ffffff" id="svg_17" d="m311.32804,93.11843c-0.11827,0.07659 -0.20698,4.67205 -0.20698,10.16109c0,11.36101 0.23655,13.30132 1.89233,16.33943c1.09401,2.04243 3.16375,4.00826 5.32218,5.10607c2.57239,1.30205 4.81953,1.685 10.5261,1.83819c5.73614,0.15318 8.19025,-0.15318 11.14702,-1.30205c2.09931,-0.8425 5.32218,-3.62531 6.38662,-5.51456c1.62623,-2.91046 1.68536,-3.49766 1.68536,-15.62458l0,-11.18229l-5.7657,0l-5.7657,0l0,10.79934c0,12.20351 -0.02957,12.48434 -2.06974,14.06722c-2.09931,1.63395 -5.61786,1.94031 -8.30853,0.71485c-1.27141,-0.56167 -1.7445,-0.97016 -2.39498,-2.06796l-0.82789,-1.35311l0,-10.67169c0,-5.87198 -0.0887,-10.8504 -0.17741,-11.08018c-0.14784,-0.35743 -0.94616,-0.40849 -5.70657,-0.40849c-3.04547,0 -5.64743,0.07659 -5.73614,0.17871l0.00003,0l0,0.00001z" xmlns="http://www.w3.org/2000/svg"/>
  <path fill="#ffffff" stroke="#ffffff" d="m369.66158,93.73966c-8.78081,0.87573 -14.3926,4.45374 -16.73635,10.6089c-0.6272,1.70143 -0.75924,2.57716 -0.75924,5.87993c0,4.40369 0.42914,5.98002 2.34375,8.95751c1.41945,2.20185 4.72051,4.95416 7.1963,6.03006c2.70687,1.17599 6.07394,1.77649 10.9265,1.95164c7.4934,0.25021 12.27992,-0.85071 16.01012,-3.67809c2.11268,-1.60134 4.62148,-5.07926 4.72051,-6.50546l0.06602,-0.82569l-4.62148,-1.0759c-6.89921,-1.60134 -6.13997,-1.65139 -7.06426,0.32527c-1.5515,3.22771 -4.78653,4.85407 -9.11091,4.50378c-4.55546,-0.35029 -6.73416,-2.40201 -7.42737,-6.95583c-1.15537,-7.60638 2.24472,-12.1602 9.0779,-12.08514c1.32042,0 2.44278,0.20017 3.33407,0.55046c1.58451,0.6005 3.66417,2.27691 3.96127,3.17767c0.13204,0.42536 0.42914,0.62552 0.9243,0.62552c0.95731,-0.02502 10.39832,-1.62636 10.66241,-1.82653c0.09903,-0.10008 -0.39613,-1.12594 -1.15537,-2.27691c-1.61752,-2.45206 -4.25836,-4.6539 -6.89921,-5.72981c-3.53213,-1.4262 -10.39832,-2.17683 -15.44894,-1.65139l-0.00001,0.00001l-0.00001,0z" id="svg_19" xmlns="http://www.w3.org/2000/svg"/>
  <path fill="#ffffff" stroke="#ffffff" id="svg_20" d="m398.79977,93.88333c-0.07728,0.18178 -0.10305,7.81642 -0.07728,16.95722l0.07728,16.61963l4.97197,0.0779l4.94621,0.05194l0.02576,-3.81732c0,-2.12939 0.07728,-4.02507 0.18033,-4.28475c0.10305,-0.23371 1.3396,-1.66196 2.73072,-3.19409c2.31854,-2.51891 2.57615,-2.72666 2.96258,-2.3631c0.20609,0.23371 1.90635,3.37586 3.76118,6.98544l3.349,6.54398l6.157,0.0779c5.77058,0.05194 6.13124,0.02597 5.97667,-0.38952c-0.10305,-0.25968 -2.78224,-4.75218 -5.95091,-9.99775c-3.19443,-5.2196 -5.92515,-9.81597 -6.07972,-10.17952c-0.36066,-0.80501 -0.51523,-0.62324 6.31157,-7.76448c2.70496,-2.80456 4.97197,-5.24557 4.99774,-5.37541c0.05152,-0.15581 -2.29278,-0.25968 -6.46614,-0.25968l-6.54343,0l-5.0235,5.92074c-5.71906,6.69979 -5.8221,6.80366 -6.157,6.25833c-0.12881,-0.20775 -0.23185,-3.01231 -0.23185,-6.2843l0,-5.89478l-4.89469,0c-3.6839,0 -4.94621,0.0779 -5.0235,0.31162l0.00001,0z" xmlns="http://www.w3.org/2000/svg"/>
 </g>

</svg>