<svg width="205" height="170" xmlns="http://www.w3.org/2000/svg">
 <g>
  <title>SMARTTRUCK</title>
  <g id="svg_1" transform="matrix(0.536573 0 0 0.583223 86.814 141.443)">
   <g id="svg_2">
    <g id="svg_3" transform="matrix(2.01294 0 0 1.91007 -49.1938 -90.6067)">
     <g id="svg_4" transform="matrix(1.84904 -0.400813 0.36349 1.83582 148.948 27.8069)">
      <path id="svg_5" d="m-49.49427,-12.7946c-0.4,0 -0.8,-0.1 -1.1,-0.4c-5.1,-3.6 -8.4,-9.2 -9.1,-15.4c-1.2,-11.8 7.4,-22.4 19.2,-23.7c11.8,-1.2 22.4,7.4 23.7,19.2c0.6,6.1 -1.3,12.2 -5.5,16.7c-0.7,0.8 -2,0.9 -2.8,0.1c-0.8,-0.7 -0.9,-2 -0.1,-2.8c3.4,-3.7 5,-8.7 4.5,-13.7c-0.5,-4.7 -2.8,-8.9 -6.4,-11.9c-3.7,-3 -8.3,-4.3 -12.9,-3.8c-4.7,0.5 -8.9,2.8 -11.9,6.4c-3,3.7 -4.3,8.3 -3.8,12.9c0.5,5.1 3.2,9.7 7.4,12.6c0.9,0.6 1.1,1.8 0.5,2.7c-0.4,0.8 -1,1.1 -1.7,1.1z" class="st0"/>
     </g>
     <g id="svg_6" transform="matrix(-1.64164 0.976327 -0.885413 -1.62991 143.504 135.472)">
      <path id="svg_7" fill=" rgb(5, 5, 5)" d="m36.7098,122.57983c-0.6,0 -1.2,-0.3 -1.6,-0.8c-0.7,-0.9 -0.5,-2.1 0.4,-2.7c7.6,-5.7 11.5,-14.8 10.5,-24.2c-0.8,-7.4 -4.6,-14.2 -10.5,-18.7c-0.9,-0.6 -1,-1.9 -0.4,-2.7c0.6,-0.9 1.9,-1 2.7,-0.4c6.8,5.1 11.2,12.9 12.1,21.3c1.1,10.8 -3.4,21.1 -12,27.7c-0.4,0.3 -0.8,0.5 -1.2,0.5z" class="st0"/>
     </g>
     <g id="svg_8" transform="matrix(2.39258 0.403535 -0.281996 1.83047 171.194 -43.5378)">
      <path id="svg_9" d="m-51.86897,56.13993c-0.251,-0.00047 -0.41785,-0.10379 -0.66869,-0.20726c-8.52619,-4.56004 -14.45134,-14.48619 -15.43833,-25.84907c-0.82231,-9.81256 2.03691,-19.30921 7.73511,-26.11451c0.67124,-0.82574 1.67508,-0.71985 2.343,0.0044c0.66776,0.82726 0.58191,2.0661 -0.00433,2.891c-5.02896,5.98156 -7.46733,14.23899 -6.72716,22.81239c0.822,10.01956 5.99616,18.60131 13.43513,22.6433c0.83638,0.41457 1.25252,1.65536 0.83298,2.68657c-0.25193,0.61953 -0.8387,1.13443 -1.5077,1.13317l-0.00001,0.00001z" class="st0"/>
     </g>
    </g>
   </g>
  </g>
 </g>

</svg>